HIERARCHY
ROOT Hips
{
    OFFSET 0.000000 0.000000 0.000000
    CHANNELS 6 Xposition Yposition Zposition Zrotation Xrotation Yrotation
    JOINT Spine
    {
        OFFSET -0.000000 7.246840 0.000000
        CHANNELS 3 Zrotation Xrotation Yrotation
        JOINT Spine1
        {
            OFFSET -0.000000 20.289354 0.000000
            CHANNELS 3 Zrotation Xrotation Yrotation
            JOINT Neck
            {
                OFFSET -0.000000 20.206032 1.836912
                CHANNELS 3 Zrotation Xrotation Yrotation
                JOINT Head
                {
                    OFFSET -0.000000 12.372654 -1.767522
                    CHANNELS 3 Zrotation Xrotation Yrotation
                    End Site
                    {
                        OFFSET -0.000000 22.094025 0.000000
                    }
                }
            }
            JOINT LeftShoulder
            {
                OFFSET 3.465871 17.201674 -0.568930
                CHANNELS 3 Zrotation Xrotation Yrotation
                JOINT LeftArm
                {
                    OFFSET 14.070313 0.000000 0.000000
                    CHANNELS 3 Zrotation Xrotation Yrotation
                    JOINT LeftForeArm
                    {
                        OFFSET 26.549477 0.000000 0.000000
                        CHANNELS 3 Zrotation Xrotation Yrotation
                        JOINT LeftHand
                        {
                            OFFSET 18.880413 0.000000 0.000000
                            CHANNELS 3 Zrotation Xrotation Yrotation
                            End Site
                            {
                                OFFSET 13.256415 0.000000 0.000000
                            }
                        }
                    }
                }
            }
            JOINT RightShoulder
            {
                OFFSET -3.526370 17.201674 -0.568930
                CHANNELS 3 Zrotation Xrotation Yrotation
                JOINT RightArm
                {
                    OFFSET -14.070313 0.000000 0.000000
                    CHANNELS 3 Zrotation Xrotation Yrotation
                    JOINT RightForeArm
                    {
                        OFFSET -26.549477 0.000000 0.000000
                        CHANNELS 3 Zrotation Xrotation Yrotation
                        JOINT RightHand
                        {
                            OFFSET -18.880413 0.000000 0.000000
                            CHANNELS 3 Zrotation Xrotation Yrotation
                            End Site
                            {
                                OFFSET -13.256415 0.000000 0.000000
                            }
                        }
                    }
                }
            }
        }
    }
    JOINT LeftUpLeg
    {
        OFFSET 8.837609 0.000000 0.000000
        CHANNELS 3 Zrotation Xrotation Yrotation
        JOINT LeftLeg
        {
            OFFSET -0.000000 -41.345005 0.000000
            CHANNELS 3 Zrotation Xrotation Yrotation
            JOINT LeftFoot
            {
                OFFSET -0.000000 -35.500874 0.000000
                CHANNELS 3 Zrotation Xrotation Yrotation
                JOINT LeftToeBase
                {
                    OFFSET -0.000000 -5.744446 13.256415
                    CHANNELS 3 Zrotation Xrotation Yrotation
                    End Site
                    {
                        OFFSET -0.000000 0.000000 3.535044
                    }
                }
            }
        }
    }
    JOINT RightUpLeg
    {
        OFFSET -8.837609 0.000000 0.000000
        CHANNELS 3 Zrotation Xrotation Yrotation
        JOINT RightLeg
        {
            OFFSET -0.000000 -41.345005 0.000000
            CHANNELS 3 Zrotation Xrotation Yrotation
            JOINT RightFoot
            {
                OFFSET -0.000000 -35.500874 0.000000
                CHANNELS 3 Zrotation Xrotation Yrotation
                JOINT RightToeBase
                {
                    OFFSET -0.000000 -5.744446 13.256415
                    CHANNELS 3 Zrotation Xrotation Yrotation
                    End Site
                    {
                        OFFSET -0.000000 0.000000 3.535044
                    }
                }
            }
        }
    }
}
MOTION
Frames:    8
Frame Time:    0.010000
4.772854    82.746681    -32.170097    2.589442    4.260969    -0.135659    -7.517027    -13.083772    -1.927931    4.427514    2.344843    -1.155368    2.752329    29.217447    -2.140018    0.940596    -9.894041    -1.662845    18.822863    1.340265    7.562350    -32.878426    15.229656    -11.965350    6.523143    -11.913074    -17.928904    -30.871992    -10.064531    -3.088581    -14.490137    0.558893    11.422214    23.620983    3.893746    6.390457    -4.966613    -10.167593    8.840282    1.827253    -9.610907    11.309256    -0.779446    4.687102    0.637799    -1.264633    -10.338935    -3.927254    -1.150448    2.578058    -2.553104    0.195820    -2.439594    -0.278259    -11.862150    -3.128392    -0.016473    4.501068    -0.216637    1.620615    7.838891    -3.058745    -7.463208    -1.387601    -0.976956    2.514760    
4.764725    82.747963    -32.178711    2.591240    4.267656    -0.119677    -7.507365    -13.083410    -1.927852    4.414653    2.347956    -1.156276    2.750530    29.198942    -2.124501    0.990223    -9.864717    -1.636451    18.828503    1.367694    7.564445    -32.889317    15.218903    -11.976870    6.530939    -11.859900    -17.925354    -30.822004    -10.015086    -3.075073    -14.478808    0.557814    11.409380    23.618778    3.903250    6.370466    -4.962792    -10.134412    8.838916    1.688791    -9.591985    11.278420    -0.771219    4.672696    0.618719    -1.260585    -10.343288    -3.970675    -1.169004    2.590894    -2.493693    0.224872    -2.458182    -0.319578    -11.867021    -3.130741    0.016554    4.520401    -0.229911    1.576247    7.845105    -3.053929    -7.466182    -1.392092    -0.991522    2.523302    
4.757933    82.749306    -32.187588    2.599254    4.271684    -0.093689    -7.512417    -13.078066    -1.940675    4.414530    2.346839    -1.168825    2.760962    29.208221    -2.121727    1.003880    -9.867848    -1.628850    18.828617    1.361354    7.564631    -32.910076    15.227543    -11.946572    6.558438    -11.790209    -17.944420    -30.819132    -9.954656    -3.019850    -14.475261    0.563868    11.426465    23.619637    3.918995    6.325096    -4.966718    -10.132121    8.853050    1.556527    -9.601622    11.281889    -0.783674    4.651524    0.635108    -1.243116    -10.334199    -3.946095    -1.175047    2.590271    -2.564632    0.189346    -2.445410    -0.269069    -11.878758    -3.130055    0.023288    4.533971    -0.233327    1.577806    7.813610    -3.063101    -7.493239    -1.393514    -0.974710    2.525412    
4.749100    82.750702    -32.196621    2.602014    4.273185    -0.071712    -7.506206    -13.072384    -1.943753    4.400671    2.354825    -1.172997    2.750114    29.173374    -2.110822    1.066222    -9.813736    -1.606256    18.828850    1.354768    7.561915    -32.908211    15.277321    -11.925297    6.599483    -11.767794    -17.971842    -30.847614    -9.932873    -2.984546    -14.477702    0.587670    11.401693    23.645210    3.860017    6.325049    -4.981339    -10.119791    8.867572    1.451755    -9.597668    11.287105    -0.777786    4.634400    0.625223    -1.271381    -10.303986    -3.859071    -1.332030    2.484980    -2.914914    -0.179840    -2.253390    0.255255    -11.882595    -3.125951    0.047944    4.545334    -0.246441    1.573000    7.805140    -3.063234    -7.542314    -1.399908    -0.973413    2.536960    
4.741273    82.752296    -32.205734    2.603334    4.275476    -0.048810    -7.620283    -13.112612    -2.025989    4.635509    2.437565    -1.247561    2.563106    29.176102    -2.024186    1.090117    -9.836040    -1.534186    18.700726    1.357096    7.653876    -32.941700    15.271601    -11.881047    6.633113    -11.736310    -17.999962    -30.866692    -9.898017    -2.968884    -14.650883    0.584100    11.545853    23.672705    3.796319    6.277277    -4.969777    -10.168002    8.868609    1.417161    -9.649587    11.334036    -0.769481    4.610994    0.648589    -1.253876    -10.289872    -4.043341    -1.212766    2.568432    -2.534575    0.186604    -2.428455    -0.265144    -11.882334    -3.123456    0.040862    4.545300    -0.253647    1.562528    7.803135    -3.058169    -7.536902    -1.386759    -0.965675    2.512922    
4.734483    82.751930    -32.214458    2.608319    4.280147    -0.030931    -7.625316    -13.111899    -2.030094    4.652124    2.446142    -1.251829    2.518571    29.153524    -2.010249    1.160233    -9.794210    -1.510495    18.674591    1.346746    7.648934    -32.949261    15.278351    -11.849644    6.648498    -11.761943    -18.030416    -30.903425    -9.912825    -2.990062    -14.664136    0.600447    11.530884    23.670406    3.740317    6.272002    -4.975555    -10.182193    8.854570    1.512913    -9.653821    11.392387    -0.771251    4.596103    0.612740    -1.259172    -10.281291    -3.934951    -1.366488    2.482996    -2.871877    -0.195036    -2.255026    0.276826    -11.887243    -3.123562    0.038296    4.713692    -0.338851    1.226911    7.676054    -2.938606    -7.233545    -1.400052    -0.962890    2.536927    
4.728323    82.752060    -32.222332    2.610866    4.277014    -0.008640    -7.626686    -13.107384    -2.040052    4.661256    2.463484    -1.262888    2.524513    29.140614    -2.004145    1.151456    -9.776362    -1.505823    18.651474    1.354432    7.659942    -32.957123    15.252618    -11.832767    6.635627    -11.803195    -18.056362    -30.937031    -9.933992    -3.062870    -14.665744    0.596073    11.524955    23.653490    3.723527    6.266175    -4.973546    -10.209229    8.840866    1.672875    -9.665627    11.411447    -0.766304    4.583687    0.611449    -1.272212    -10.260327    -3.916404    -1.205368    2.571846    -2.649562    0.215448    -2.458214    -0.306185    -11.887755    -3.114644    0.045953    4.554545    -0.274620    1.560878    7.816224    -3.067548    -7.576362    -1.393350    -0.949622    2.524418    
4.720554    82.752510    -32.231178    2.615293    4.271527    0.007302    -7.631223    -13.097330    -2.046277    4.665217    2.476159    -1.269865    2.557709    29.127853    -1.997794    1.118583    -9.755054    -1.503015    18.650347    1.358155    7.675990    -32.972210    15.267691    -11.817271    6.609267    -11.855530    -18.092119    -30.939621    -9.970867    -3.127959    -14.663316    0.589395    11.522832    23.640732    3.701051    6.250042    -4.964030    -10.227573    8.829493    1.858371    -9.666376    11.447082    -0.765671    4.571636    0.638686    -1.254255    -10.244384    -4.041785    -1.240291    2.557498    -2.578754    0.183182    -2.438249    -0.260298    -11.890651    -3.092731    0.152842    4.562082    -0.322278    1.461159    7.806566    -3.043972    -7.586769    -1.377843    -0.974091    2.497000    
